HIERARCHY
ROOT Hips
{
	OFFSET 0.000000 0.000000 0.000000
	CHANNELS 6 Xposition Yposition Zposition Zrotation Yrotation Xrotation 
	JOINT LHipJoint
	{
		OFFSET 0.000000 0.000000 0.000000
		CHANNELS 3 Zrotation Yrotation Xrotation
		JOINT LeftUpLeg
		{
			OFFSET 1.363060 -1.794630 0.839290
			CHANNELS 3 Zrotation Yrotation Xrotation
			JOINT LeftLeg
			{
				OFFSET 2.448110 -6.726130 0.000000
				CHANNELS 3 Zrotation Yrotation Xrotation
				JOINT LeftFoot
				{
					OFFSET 2.562200 -7.039590 0.000000
					CHANNELS 3 Zrotation Yrotation Xrotation
					JOINT LeftToeBase
					{
						OFFSET 0.157640 -0.433110 2.322550
						CHANNELS 3 Zrotation Yrotation Xrotation
						End Site
						{
							OFFSET 0.000000 0.000000 0.000000
						}
					}
				}
			}
		}
	}
	JOINT RHipJoint
	{
		OFFSET 0.000000 0.000000 0.000000
		CHANNELS 3 Zrotation Yrotation Xrotation
		JOINT RightUpLeg
		{
			OFFSET -1.305520 -1.794630 0.839290
			CHANNELS 3 Zrotation Yrotation Xrotation
			JOINT RightLeg
			{
				OFFSET -2.542530 -6.985550 0.000000
				CHANNELS 3 Zrotation Yrotation Xrotation
				JOINT RightFoot
				{
					OFFSET -2.568260 -7.056230 0.000000
					CHANNELS 3 Zrotation Yrotation Xrotation
					JOINT RightToeBase
					{
						OFFSET -0.164730 -0.452590 2.363150
						CHANNELS 3 Zrotation Yrotation Xrotation
						End Site
						{
							OFFSET 0.000000 0.000000 0.000000
						}
					}
				}
			}
		}
	}
}
MOTION
Frames: 30
Frame Time: 0.008333
28.103739 16.970676 2.270784 135.530659 -86.336291 -130.602321 -10.034392 0.766514 2.674444 -10.821803 4.400074 -30.670433 -2.084677 0.058535 17.426888 1.230228 8.085094 -0.388608 1.283100 0.000000 -26.252900 9.844017 -4.344367 -0.400652 1.359511 -9.331951 14.475060 1.428955 -1.234494 11.446770 0.114806 1.926866 6.257034 0.183500 0.000000 -73.301099
27.962703 16.976786 2.301751 138.172527 -86.171239 -133.386517 -10.107263 0.807714 2.717500 -10.634358 4.119759 -30.272135 -2.004055 0.115624 18.132614 1.288891 8.400562 -0.646938 1.273900 -0.000000 -25.733600 9.823787 -4.386568 -0.408903 1.022362 -9.243833 14.415297 1.326188 -1.380149 12.436011 0.129274 2.196551 7.658111 0.307500 0.000001 -76.004500
27.820274 16.984688 2.332326 140.170626 -86.014222 -135.530295 -10.159067 0.854431 2.750838 -10.510364 3.884236 -29.856158 -1.935440 0.165392 18.807398 1.349256 8.724549 -0.964189 1.254400 0.000000 -25.210400 9.831989 -4.427986 -0.410804 0.652459 -9.169649 14.263778 1.207275 -1.530060 13.547435 0.132927 2.480464 9.134209 0.458100 0.000001 -78.735200
27.676670 16.994225 2.362663 141.670235 -85.868495 -137.176998 -10.195296 0.904810 2.773068 -10.443869 3.707473 -29.421995 -1.879962 0.207234 19.438941 1.408530 9.035935 -1.348160 1.219300 -0.000000 -24.697500 9.863111 -4.468682 -0.404724 0.261712 -9.105535 14.006257 1.073049 -1.683167 14.798687 0.124563 2.786863 10.695778 0.641200 -0.000000 -81.402000
27.532895 17.005100 2.392436 142.610535 -85.733175 -138.272407 -10.213390 0.958518 2.780915 -10.444679 3.588347 -28.943248 -1.839294 0.239078 20.002825 1.464880 9.326142 -1.796544 1.166700 0.000000 -24.196300 9.924655 -4.507886 -0.397198 -0.179082 -9.086795 13.629584 0.922722 -1.839731 16.218328 0.105034 3.160054 12.363843 0.876900 -0.000000 -83.929800
27.389296 17.016971 2.421504 143.041962 -85.606008 -138.867552 -10.213915 1.015359 2.773259 -10.512806 3.527936 -28.408468 -1.814065 0.260144 20.482308 1.516623 9.584641 -2.304383 1.095500 0.000000 -23.706400 10.017731 -4.543171 -0.390230 -0.677504 -9.126029 13.124134 0.756922 -1.996925 17.820611 0.071949 3.616936 14.149209 1.179600 -0.000000 -86.218100
27.246084 17.029460 2.450270 143.209804 -85.483865 -139.200888 -10.204633 1.075363 2.751379 -10.628614 3.535617 -27.828109 -1.803411 0.272184 20.875679 1.561611 9.793092 -2.866986 1.004200 0.000000 -23.231100 10.130999 -4.570237 -0.380409 -1.201296 -9.202312 12.488684 0.577968 -2.148882 19.597527 0.019449 4.126601 16.061148 1.546700 0.000000 -88.148700
27.104150 17.042121 2.478797 143.206311 -85.363619 -139.364198 -10.187818 1.138625 2.716063 -10.782672 3.608347 -27.200763 -1.806368 0.275936 21.178181 1.598828 9.944872 -3.473066 0.894701 -0.000000 -22.767299 10.261275 -4.584509 -0.369472 -1.743316 -9.319284 11.724875 0.388938 -2.290438 21.543917 -0.056681 4.668865 18.096278 1.976100 0.000001 -89.615100
26.963697 17.054462 2.506497 142.906398 -85.238910 -139.236307 -10.155611 1.205458 2.667639 -10.987444 3.723068 -26.505640 -1.822223 0.269772 21.372550 1.629888 10.056073 -4.101030 0.773800 -0.000000 -22.305500 10.419226 -4.581279 -0.363675 -2.335893 -9.506259 10.829337 0.192944 -2.418085 23.663923 -0.159689 5.240571 20.251984 2.471300 -0.000000 -90.535600
26.824758 17.066151 2.533990 142.608145 -85.110028 -139.105647 -10.119576 1.274972 2.610282 -11.209442 3.885497 -25.772911 -1.847698 0.257410 21.479540 1.653801 10.115098 -4.742925 0.643000 -0.000000 -21.854800 10.585036 -4.555873 -0.358598 -2.919280 -9.723764 9.818913 -0.001750 -2.525681 25.921229 -0.293367 5.738479 22.478846 2.979500 -0.000000 -90.778501
26.687589 17.076880 2.561092 142.302711 -84.974918 -138.963794 -10.078194 1.346415 2.546770 -11.445666 4.077402 -25.003402 -1.880357 0.239209 21.501813 1.672461 10.136936 -5.381392 0.508399 0.000000 -21.414900 10.758055 -4.505311 -0.357418 -3.491809 -9.975553 8.702107 -0.188255 -2.612004 28.299412 -0.457071 6.093300 24.723433 3.450200 -0.000000 -90.261000
26.552247 17.086466 2.587784 142.045027 -84.833690 -138.861960 -10.033439 1.418699 2.480891 -11.685607 4.284065 -24.207760 -1.917183 0.216411 21.450606 1.687749 10.134613 -6.003487 0.374600 -0.000000 -20.991800 10.932068 -4.428614 -0.361671 -4.035769 -10.253454 7.491233 -0.359595 -2.678215 30.774176 -0.647515 6.207965 26.906290 3.804900 0.000000 -88.922800
26.418626 17.094902 2.614243 141.910619 -84.690065 -138.873383 -9.990175 1.490344 2.416334 -11.913309 4.495811 -23.401927 -1.954913 0.190974 21.345347 1.701120 10.117622 -6.601937 0.244500 0.000001 -20.591300 11.097680 -4.327365 -0.372926 -4.525891 -10.548228 6.201208 -0.510752 -2.728439 33.317613 -0.858700 5.977536 28.926087 3.947900 0.000000 -86.756300
26.286839 17.102304 2.640073 141.847948 -84.541135 -138.947405 -9.945229 1.560413 2.356195 -12.132544 4.689431 -22.584175 -1.991113 0.162733 21.187687 1.716334 10.113638 -7.164156 0.122000 0.000000 -20.218400 11.256029 -4.203731 -0.393817 -4.964668 -10.858443 4.840352 -0.640929 -2.769663 35.909988 -1.084851 5.320462 30.684273 3.794399 0.000000 -83.853700
26.156593 17.108941 2.665457 141.916979 -84.391157 -139.141416 -9.903459 1.627633 2.303224 -12.330190 4.858412 -21.767572 -2.023233 0.133308 20.994765 1.734786 10.131593 -7.688903 0.007600 -0.000000 -19.877401 11.399173 -4.062615 -0.424808 -5.329596 -11.173085 3.423643 -0.752003 -2.809007 38.518634 -1.319564 4.170508 32.070291 3.273500 -0.000000 -80.369400
26.027924 17.115132 2.690272 142.110633 -84.240527 -139.451545 -9.865658 1.691060 2.258536 -12.503883 4.994013 -20.953004 -2.049597 0.103204 20.771706 1.758547 10.186642 -8.173069 -0.098500 -0.000000 -19.571100 11.525079 -3.908699 -0.466349 -5.613248 -11.482227 1.964330 -0.848888 -2.853669 41.113796 -1.557407 2.518229 32.984760 2.366600 -0.000001 -76.523800
25.900460 17.121291 2.714917 142.513126 -84.098121 -139.959654 -9.840040 1.749812 2.222945 -12.635051 5.104801 -20.157154 -2.068811 0.074474 20.540505 1.786413 10.269573 -8.624787 -0.198700 0.000001 -19.297300 11.624826 -3.748722 -0.516763 -5.788575 -11.774837 0.476918 -0.937536 -2.907872 43.657053 -1.793298 0.410931 33.353738 1.114201 -0.000000 -72.559901
25.774105 17.127884 2.739031 143.070463 -83.956868 -140.615217 -9.822899 1.804302 2.195191 -12.734008 5.183863 -19.362985 -2.080890 0.045860 20.283625 1.820398 10.397281 -9.036609 -0.291700 -0.000000 -19.057300 11.702931 -3.586397 -0.574665 -5.865476 -12.035855 -1.026375 -1.023793 -2.975382 46.120198 -2.022868 -2.034994 33.129446 -0.375500 0.000000 -68.653300
25.648935 17.135258 2.763083 143.867033 -83.826042 -141.502596 -9.822647 1.854416 2.174303 -12.782170 5.251412 -18.586403 -2.085814 0.019145 20.019011 1.857151 10.546732 -9.419185 -0.380400 0.000000 -18.846301 11.752029 -3.428027 -0.636874 -5.820797 -12.256696 -2.534326 -1.111605 -3.055535 48.466138 -2.240163 -4.661267 32.300321 -1.952000 0.000001 -64.947400
25.524648 17.143757 2.786926 144.877303 -83.699807 -142.599689 -9.837352 1.901563 2.157216 -12.785873 5.314409 -17.809874 -2.084701 -0.006677 19.727562 1.895981 10.717356 -9.766863 -0.463700 0.000000 -18.664700 11.775737 -3.276461 -0.701420 -5.664994 -12.427417 -4.033808 -1.202637 -3.146978 50.665234 -2.439560 -7.287241 30.891166 -3.447400 -0.000000 -61.486200
25.401385 17.153540 2.810756 146.124405 -83.580097 -143.932865 -9.869319 1.946916 2.141367 -12.739767 5.390288 -17.031846 -2.078807 -0.031393 19.405744 1.933698 10.890104 -10.081854 -0.541800 0.000000 -18.513100 11.773540 -3.134690 -0.765709 -5.397221 -12.545156 -5.513623 -1.295746 -3.245404 52.686661 -2.614824 -9.742895 28.963646 -4.712100 -0.000000 -58.244900
25.279073 17.164678 2.834659 147.612604 -83.465832 -145.507843 -9.918356 1.992338 2.123826 -12.643161 5.495013 -16.245166 -2.069705 -0.055253 19.043867 1.967216 11.047836 -10.362085 -0.613600 0.000000 -18.393500 11.747408 -3.003780 -0.827427 -5.024649 -12.610758 -6.963317 -1.387130 -3.345159 54.502616 -2.760722 -11.895588 26.610722 -5.643000 -0.000001 -55.244500
25.157505 17.177061 2.858732 149.340046 -83.355943 -147.328808 -9.983476 2.039415 2.100727 -12.495408 5.644305 -15.439621 -2.058962 -0.078364 18.630553 1.993249 11.172896 -10.603754 -0.677299 -0.000000 -18.313400 11.699864 -2.882950 -0.885657 -4.557598 -12.628387 -8.368247 -1.470942 -3.440024 56.086711 -2.873052 -13.657160 23.952750 -6.193900 0.000000 -52.440300
25.036869 17.190443 2.882981 151.270508 -83.251863 -149.358224 -10.060852 2.089813 2.071763 -12.301333 5.842950 -14.613930 -2.047942 -0.101276 18.159823 2.009620 11.252840 -10.803152 -0.731000 0.000000 -18.282801 11.635604 -2.771111 -0.939219 -4.011761 -12.614178 -9.727118 -1.540357 -3.524946 57.425954 -2.947626 -14.978066 21.099703 -6.366600 0.000000 -49.732900
24.916655 17.204501 2.907327 153.350830 -83.154817 -151.542091 -10.145506 2.144732 2.035969 -12.068308 6.092628 -13.761259 -2.037775 -0.124767 17.622960 2.014736 11.279411 -10.954120 -0.772200 -0.000001 -18.314201 11.560088 -2.666234 -0.988478 -3.407646 -12.586503 -11.034773 -1.588570 -3.596155 58.509526 -2.982532 -15.851445 18.170560 -6.210500 0.000000 -47.040700
24.797461 17.218807 2.932004 155.604802 -83.066174 -153.916403 -10.237454 2.204632 1.987991 -11.789091 6.409805 -12.871363 -2.029079 -0.147728 17.019198 2.005264 11.234244 -11.052831 -0.799000 -0.000000 -18.424700 11.474373 -2.564702 -1.036588 -2.752482 -12.557877 -12.270099 -1.610781 -3.649307 59.318767 -2.981134 -16.324759 15.311724 -5.820900 0.000000 -44.640200
24.678697 17.232933 2.956620 157.912300 -82.992006 -156.350896 -10.328383 2.269206 1.932795 -11.482083 6.773239 -11.952261 -2.022082 -0.171812 16.349185 1.982762 11.125549 -11.093462 -0.809800 0.000000 -18.627000 11.386029 -2.465524 -1.083492 -2.071789 -12.558157 -13.449882 -1.603671 -3.685022 59.863822 -2.944909 -16.437856 12.600658 -5.278000 0.000001 -42.360900
24.560146 17.246425 2.981007 160.216712 -82.938477 -158.788221 -10.415090 2.337507 1.871513 -11.154781 7.174629 -11.008132 -2.016679 -0.197187 15.620258 1.947598 10.954401 -11.074046 -0.804300 -0.000001 -18.930999 11.298063 -2.367223 -1.131134 -1.379401 -12.608394 -14.577699 -1.566841 -3.703767 60.149207 -2.880049 -16.262886 10.119877 -4.670100 -0.000001 -40.306000
24.442175 17.258893 3.005492 162.594206 -82.908622 -161.313635 -10.500562 2.409275 1.799747 -10.792220 7.627739 -10.035859 -2.012525 -0.221705 14.846857 1.897684 10.706579 -10.997617 -0.783100 -0.000000 -19.351500 11.208765 -2.268377 -1.185269 -0.671333 -12.721334 -15.635795 -1.502751 -3.705479 60.176620 -2.794963 -15.884700 7.925102 -4.069600 -0.000000 -38.564900
24.324176 17.270026 3.029190 164.853194 -82.911717 -163.716587 -10.576604 2.482227 1.728169 -10.428837 8.089687 -9.059349 -2.009321 -0.248044 14.038676 1.838650 10.411987 -10.864728 -0.748100 -0.000000 -19.875800 11.123980 -2.169945 -1.242321 0.027293 -12.916931 -16.663975 -1.413778 -3.694392 59.975209 -2.696826 -15.368147 6.019347 -3.514500 -0.000000 -37.080300
